<?xml version="1.0" standalone="no"?>
<!DOCTYPE svg PUBLIC "-//W3C//DTD SVG 20010904//EN"
 "http://www.w3.org/TR/2001/REC-SVG-20010904/DTD/svg10.dtd">
<svg version="1.0" xmlns="http://www.w3.org/2000/svg"
 width="100.000000pt" height="100.000000pt" viewBox="0 0 100.000000 100.000000"
 preserveAspectRatio="xMidYMid meet">

<g transform="translate(0.000000,100.000000) scale(0.100000,-0.100000)">
<path d="M690 813 c-8 -3 -22 -12 -30 -19 -8 -7 -42 -14 -75 -16 -45 -2 -60
-7 -60 -18 0 -11 14 -16 56 -18 l57 -3 6 -37 c19 -117 -2 -279 -46 -350 -38
-62 -109 -90 -142 -56 -36 35 -6 182 43 212 25 15 27 39 5 70 -14 20 -23 22
-119 22 l-104 0 -3 68 -3 67 -125 0 -125 0 -3 -104 c-1 -58 -7 -111 -13 -117
-21 -25 3 -34 92 -34 l91 0 -32 -27 c-33 -27 -80 -94 -80 -113 0 -6 13 -17 29
-23 23 -10 28 -16 21 -27 -26 -41 -3 -121 46 -159 77 -60 198 -17 219 79 l7
30 117 0 c116 0 118 0 129 -25 6 -13 23 -27 37 -31 14 -3 40 -21 59 -40 38
-38 72 -49 121 -40 70 13 125 90 112 156 -4 19 -2 30 8 34 48 18 -18 119 -90
138 -41 11 -43 13 -49 59 -4 26 -22 78 -41 116 -34 67 -34 68 -15 89 26 26 26
85 2 107 -18 16 -71 21 -102 10z m80 -63 c0 -26 -4 -30 -28 -30 -16 0 -37 7
-48 15 -19 15 -19 15 0 30 11 8 32 15 48 15 24 0 28 -4 28 -30z m-530 -140 l0
-90 -90 0 -90 0 0 90 0 90 90 0 90 0 0 -90z m486 48 c38 -46 75 -130 77 -178
2 -40 0 -42 -37 -55 -48 -17 -91 -58 -113 -107 -13 -28 -23 -38 -40 -38 l-24
0 30 38 c48 60 66 131 66 259 0 62 3 113 7 113 3 0 19 -15 34 -32z m-251 -109
c13 -19 -6 -24 -95 -24 -89 0 -108 5 -95 24 8 15 182 15 190 0z m-62 -115
c-10 -28 -14 -66 -11 -100 3 -34 1 -54 -6 -54 -6 0 -68 16 -138 36 l-127 37
14 28 c16 30 66 72 105 88 14 5 60 10 102 10 l77 1 -16 -46z m492 -48 c18 -8
38 -24 45 -35 12 -24 15 -23 -67 -21 -78 2 -126 -20 -160 -71 -14 -21 -29 -36
-34 -33 -14 8 -11 52 5 82 41 79 129 112 211 78z m-697 -121 c-23 -52 31 -102
81 -76 11 7 24 23 27 36 4 16 13 25 25 25 37 0 12 -73 -32 -96 -34 -17 -60
-18 -94 -2 -61 28 -76 138 -19 138 22 0 23 -2 12 -25z m726 9 c23 -61 -28
-134 -94 -134 -33 0 -71 23 -86 51 -13 26 -12 30 10 56 l24 28 -5 -27 c-3 -18
1 -32 16 -47 26 -26 55 -27 81 -1 22 22 25 42 10 71 -9 16 -7 19 14 19 13 0
27 -7 30 -16z m-658 -25 c10 -17 -13 -36 -27 -22 -12 12 -4 33 11 33 5 0 12
-5 16 -11z m580 0 c10 -17 -13 -36 -27 -22 -12 12 -4 33 11 33 5 0 12 -5 16
-11z"/>
</g>
</svg>
