<?xml version="1.0" standalone="no"?>
<!DOCTYPE svg PUBLIC "-//W3C//DTD SVG 20010904//EN"
 "http://www.w3.org/TR/2001/REC-SVG-20010904/DTD/svg10.dtd">
<svg version="1.0" xmlns="http://www.w3.org/2000/svg"
 width="100.000000pt" height="100.000000pt" viewBox="0 0 100.000000 100.000000"
 preserveAspectRatio="xMidYMid meet">

<g transform="translate(0.000000,100.000000) scale(0.100000,-0.100000)">
<path d="M557 964 c-4 -4 -7 -27 -7 -50 0 -31 -10 -62 -35 -107 -35 -64 -35
-64 -35 -195 0 -132 9 -165 35 -129 7 10 26 17 44 17 21 0 31 5 31 15 0 10
-11 15 -35 15 -31 0 -35 3 -35 25 0 23 4 25 45 25 l45 0 0 60 0 60 -45 0 c-33
0 -45 4 -45 15 0 13 30 15 211 15 164 0 210 -3 207 -12 -3 -9 -31 -14 -81 -16
l-77 -3 0 -59 0 -60 80 0 c79 0 80 0 80 -25 l0 -25 -125 0 c-104 0 -125 -2
-125 -15 0 -13 20 -15 124 -15 122 0 125 -1 128 -22 2 -13 8 -23 13 -23 6 0
11 57 13 145 l3 145 -33 62 -33 63 -162 0 -163 0 0 35 0 35 156 0 c120 0 155
3 152 13 -4 9 -47 13 -164 15 -88 1 -163 -1 -167 -4z m346 -155 c10 -18 16
-33 14 -36 -2 -2 -90 -2 -195 -1 l-191 3 20 33 21 32 156 0 157 0 18 -31z
m-323 -169 c0 -27 -3 -30 -30 -30 -27 0 -30 3 -30 30 0 27 3 30 30 30 27 0 30
-3 30 -30z m360 0 l0 -30 -65 0 -65 0 0 30 0 30 65 0 65 0 0 -30z"/>
<path d="M50 650 c-27 -27 -25 -56 5 -86 23 -23 25 -32 25 -115 0 -68 3 -90
13 -87 6 3 13 14 15 25 2 11 23 39 47 63 25 25 45 48 45 52 0 17 -26 6 -57
-24 l-33 -32 0 52 0 52 170 0 c144 0 170 2 170 15 0 13 -27 15 -184 15 -151 0
-186 3 -196 15 -10 12 -10 18 0 30 10 12 45 15 196 15 157 0 184 2 184 15 0
13 -28 15 -190 15 -177 0 -191 -1 -210 -20z"/>
<path d="M242 467 c-39 -40 -53 -67 -34 -67 10 0 102 93 102 103 0 19 -30 3
-68 -36z"/>
<path d="M432 428 c-7 -7 -12 -21 -12 -32 0 -11 -12 -33 -27 -48 -20 -21 -24
-31 -15 -40 8 -8 15 -8 27 2 13 11 15 0 15 -98 0 -121 9 -154 47 -171 32 -15
284 -14 317 1 14 6 31 26 38 43 10 29 17 34 59 39 75 10 89 35 89 158 0 97 -1
100 -29 129 l-29 29 -234 0 c-169 0 -237 -3 -246 -12z m366 -70 l3 -48 -175 0
-176 0 0 43 c0 24 3 47 7 51 4 3 81 5 172 4 l166 -3 3 -47z m122 32 c17 -17
20 -33 20 -108 0 -109 -7 -120 -80 -124 -53 -3 -54 -4 -61 -38 -11 -55 -27
-60 -176 -60 -171 0 -173 1 -173 130 l0 90 175 0 175 0 0 -46 0 -45 53 3 52 3
0 85 0 85 -37 3 c-30 3 -38 7 -38 23 0 27 62 27 90 -1z m-50 -110 c0 -53 -2
-60 -20 -60 -18 0 -20 7 -20 60 0 53 2 60 20 60 18 0 20 -7 20 -60z"/>
<path d="M248 386 c-19 -12 -51 -25 -71 -29 -81 -13 -147 -87 -147 -164 0 -50
41 -114 90 -140 55 -29 95 -29 150 0 50 26 90 90 90 141 -1 51 -35 114 -76
138 l-36 21 26 14 c14 7 26 18 26 23 0 20 -19 19 -52 -4z m-58 -86 c0 -28 -2
-30 -26 -24 -35 9 -28 -16 9 -34 22 -11 32 -11 54 0 34 17 45 43 14 35 -17 -4
-21 -1 -21 19 0 14 6 24 14 24 25 0 74 -49 87 -87 34 -104 -80 -205 -177 -157
-106 53 -107 184 -3 236 46 24 49 23 49 -12z"/>
<path d="M94 175 c-8 -20 21 -63 52 -77 44 -20 42 5 -3 50 -33 32 -45 39 -49
27z"/>
<path d="M346 388 c-19 -27 -20 -38 -3 -38 14 0 57 41 57 53 0 16 -40 5 -54
-15z"/>
</g>
</svg>
