<?xml version="1.0" standalone="no"?>
<!DOCTYPE svg PUBLIC "-//W3C//DTD SVG 20010904//EN"
 "http://www.w3.org/TR/2001/REC-SVG-20010904/DTD/svg10.dtd">
<svg version="1.0" xmlns="http://www.w3.org/2000/svg"
 width="100.000000pt" height="100.000000pt" viewBox="0 0 100.000000 100.000000"
 preserveAspectRatio="xMidYMid meet">

<g transform="translate(0.000000,100.000000) scale(0.100000,-0.100000)">
<path d="M445 953 c-11 -2 -30 -6 -42 -9 -13 -2 -38 -18 -58 -35 -39 -35 -45
-69 -23 -141 9 -29 9 -41 0 -50 -18 -18 -15 -45 6 -60 10 -7 22 -26 26 -42 4
-16 19 -43 33 -60 24 -28 24 -31 7 -43 -10 -7 -43 -22 -73 -33 -88 -31 -124
-55 -148 -96 -21 -36 -23 -52 -23 -191 l0 -153 350 0 350 0 0 153 c0 139 -2
155 -23 191 -24 41 -60 65 -148 96 -30 11 -63 26 -73 33 -18 13 -18 16 8 59
14 25 26 51 26 59 0 8 9 20 20 27 24 15 26 48 4 60 -14 8 -13 12 5 43 25 40
27 87 6 95 -8 4 -15 12 -15 20 0 7 -20 29 -46 48 -39 30 -52 34 -97 34 -29 -1
-61 -3 -72 -5z m153 -43 c17 -13 33 -29 36 -37 7 -16 4 -16 -28 -1 -21 9 -33
8 -65 -7 -38 -17 -65 -17 -120 1 -20 6 -23 4 -18 -10 8 -21 -13 -31 -48 -22
-33 8 -31 23 7 58 30 27 41 31 93 41 50 9 114 -1 143 -23z m12 -79 c15 -30 12
-186 -4 -226 -8 -19 -30 -44 -48 -55 -60 -37 -124 -22 -165 39 -20 29 -23 47
-23 127 0 93 0 94 24 94 14 0 28 5 32 11 3 6 20 8 38 5 17 -3 44 1 61 9 43 19
73 18 85 -4z m55 -20 c-11 -43 -23 -45 -26 -3 -4 34 -2 38 14 34 14 -4 17 -11
12 -31z m-315 -19 c0 -15 -2 -15 -10 -2 -13 20 -13 33 0 25 6 -3 10 -14 10
-23z m0 -102 c0 -5 -4 -10 -10 -10 -5 0 -10 5 -10 10 0 6 5 10 10 10 6 0 10
-4 10 -10z m310 0 c0 -5 -4 -10 -10 -10 -5 0 -10 5 -10 10 0 6 5 10 10 10 6 0
10 -4 10 -10z m-90 -216 c0 -50 -19 -69 -70 -69 -51 0 -70 19 -70 69 l0 41 70
0 70 0 0 -41z m-133 -74 c32 -25 85 -26 124 -3 24 14 29 24 29 55 0 41 0 41
24 32 13 -5 16 -22 16 -80 l0 -74 -130 0 -130 0 0 70 c0 55 3 71 18 79 14 8
17 5 20 -24 2 -23 12 -41 29 -55z m-87 -5 c0 -51 -3 -65 -15 -65 -12 0 -15 13
-15 58 0 32 3 62 7 65 17 17 23 2 23 -58z m328 -3 c2 -51 0 -62 -13 -62 -12 0
-15 13 -15 66 0 48 3 65 13 62 7 -3 13 -28 15 -66z m-381 -39 c-4 -49 -10
-109 -13 -135 l-7 -48 -53 0 -54 0 0 75 c0 42 6 90 14 108 16 40 70 87 98 87
20 0 21 -4 15 -87z m474 60 c44 -37 59 -80 59 -168 l0 -75 -54 0 -53 0 -7 48
c-3 26 -9 86 -13 135 -6 83 -5 87 15 87 11 0 35 -12 53 -27z m-81 -136 c0 -19
3 -75 6 -125 l7 -92 -37 0 -36 0 0 61 c0 52 -2 60 -16 55 -76 -29 -132 -29
-208 0 -14 5 -16 -3 -16 -55 l0 -61 -46 0 -47 0 7 92 c3 50 6 106 6 125 l0 33
190 0 190 0 0 -33z m-410 -141 c0 -7 -3 -28 -6 -45 -6 -30 -9 -31 -55 -31
l-49 0 0 45 0 45 55 0 c40 0 55 -4 55 -14z m210 -3 c25 -3 62 -1 83 5 l37 10
0 -44 0 -44 -100 0 -100 0 0 46 c0 40 2 45 18 39 9 -4 37 -10 62 -12z m340
-28 l0 -45 -49 0 c-46 0 -49 1 -55 31 -11 58 -10 59 49 59 l55 0 0 -45z"/>
<path d="M403 725 c-7 -21 6 -33 17 -15 7 11 11 12 24 0 20 -15 29 -9 20 14
-8 20 -53 21 -61 1z"/>
<path d="M526 724 c-9 -23 0 -29 20 -14 13 12 17 11 24 0 11 -18 24 -6 17 15
-8 20 -53 19 -61 -1z"/>
<path d="M450 617 c0 -13 44 -25 64 -17 36 13 27 25 -19 25 -25 0 -45 -4 -45
-8z"/>
<path d="M330 265 c0 -9 5 -15 11 -13 6 2 11 8 11 13 0 5 -5 11 -11 13 -6 2
-11 -4 -11 -13z"/>
<path d="M332 169 c4 -79 23 -81 23 -2 0 37 -4 58 -13 61 -10 3 -12 -11 -10
-59z"/>
</g>
</svg>
