<svg version="1.1" xmlns="http://www.w3.org/2000/svg" xmlns:xlink="http://www.w3.org/1999/xlink" width="100.000000pt" height="100.000000pt" viewBox="0,0,256,256"><g  stroke-width="1" stroke-linecap="butt" stroke-linejoin="miter" stroke-miterlimit="10" stroke-dasharray="" stroke-dashoffset="0" font-family="none" font-weight="none" font-size="none" text-anchor="none" style="mix-blend-mode: normal"><g transform="translate(0.37493,4.85802) scale(2.56,2.56)"><g transform="translate(0,100) scale(0.1,-0.1)"><path d="M208,905c-47,-25 -89,-49 -93,-54c-3,-6 19,-49 49,-97c41,-65 53,-91 45,-100c-7,-9 -18,-10 -32,-5c-24,9 -61,-1 -72,-20c-5,-6 -8,-25 -7,-40c1,-27 -2,-29 -38,-29c-29,0 -42,-5 -50,-19c-14,-27 -13,-38 9,-58c10,-10 22,-36 25,-57c18,-97 92,-195 175,-232c30,-13 47,-28 56,-51c8,-19 25,-37 40,-43c33,-13 355,-13 388,-1c15,6 30,24 37,43c9,23 30,44 70,69c32,20 71,56 88,80c31,46 62,125 62,160c0,11 7,22 15,25c20,8 28,40 15,64c-8,14 -21,20 -46,20c-27,0 -36,5 -44,24c-5,14 -22,33 -37,43c-15,10 -34,25 -40,34c-19,26 -61,32 -89,14c-30,-19 -67,-11 -99,21c-29,29 -45,30 -76,6c-29,-23 -95,-26 -103,-6c-3,8 12,58 34,111c22,52 40,99 40,104c0,5 -45,9 -99,9c-79,0 -100,3 -105,15c-8,22 -22,18 -118,-30zM322,834c21,-90 21,-94 -5,-126c-36,-43 -69,-29 -122,54c-25,38 -45,71 -45,73c0,8 135,74 145,71c6,-1 18,-34 27,-72zM490,886c0,-18 -61,-141 -69,-140c-6,1 -19,2 -30,3c-14,1 -22,16 -35,66c-9,35 -16,67 -16,70c0,3 34,5 75,5c41,0 75,-2 75,-4zM420,700c11,-11 20,-31 20,-45c0,-29 3,-30 35,-9c18,12 28,13 44,5c28,-16 38,-14 44,9c11,41 55,36 61,-6c3,-14 10,-18 31,-16c14,2 33,-2 41,-9c12,-10 19,-8 35,9c25,28 43,28 68,1c11,-12 30,-27 43,-33c12,-6 24,-19 26,-29c3,-16 -21,-17 -362,-17c-351,0 -366,1 -376,19c-14,28 13,55 41,41c10,-6 19,-18 19,-26c0,-23 24,-11 28,13c2,12 12,29 23,39c19,17 22,17 49,2c31,-18 40,-15 40,15c0,26 28,57 52,57c10,0 27,-9 38,-20zM968,518c-4,-10 -106,-13 -468,-13c-362,0 -464,3 -467,13c-4,9 94,12 467,12c373,0 471,-3 468,-12zM930,451c0,-32 -22,-81 -36,-81c-9,0 -14,-11 -14,-28c0,-30 -62,-98 -113,-124c-16,-8 -38,-32 -51,-54l-22,-39h-189c-173,0 -190,2 -193,18c-3,15 8,17 123,17c97,0 126,3 123,13c-3,8 -45,13 -144,17c-156,6 -179,13 -251,83c-31,29 -43,49 -43,69c0,17 -5,28 -14,28c-14,0 -36,49 -36,81c0,18 18,19 430,19c412,0 430,-1 430,-19z"></path><path d="M172,345c4,-33 22,-33 26,0c2,18 -1,25 -13,25c-12,0 -15,-7 -13,-25z"></path><path d="M252,345c4,-33 22,-33 26,0c2,18 -1,25 -13,25c-12,0 -15,-7 -13,-25z"></path><path d="M332,345c4,-33 22,-33 26,0c2,18 -1,25 -13,25c-12,0 -15,-7 -13,-25z"></path><path d="M410,340c0,-21 4,-30 13,-27c6,2 12,14 12,27c0,13 -6,25 -12,28c-9,2 -13,-7 -13,-28z"></path><path d="M490,340c0,-16 5,-30 10,-30c6,0 10,14 10,30c0,17 -4,30 -10,30c-5,0 -10,-13 -10,-30z"></path><path d="M564,355c-8,-19 2,-45 16,-45c5,0 10,14 10,30c0,31 -16,41 -26,15z"></path><path d="M642,345c4,-33 22,-33 26,0c2,18 -1,25 -13,25c-12,0 -15,-7 -13,-25z"></path><path d="M722,345c4,-33 22,-33 26,0c2,18 -1,25 -13,25c-12,0 -15,-7 -13,-25z"></path><path d="M802,345c4,-33 22,-33 26,0c2,18 -1,25 -13,25c-12,0 -15,-7 -13,-25z"></path><path d="M600,175c0,-13 9,-16 43,-13c23,2 42,8 42,13c0,6 -19,11 -42,13c-34,3 -43,0 -43,-13z"></path></g></g></g></svg>