<?xml version="1.0" standalone="no"?>
<!DOCTYPE svg PUBLIC "-//W3C//DTD SVG 20010904//EN"
 "http://www.w3.org/TR/2001/REC-SVG-20010904/DTD/svg10.dtd">
<svg version="1.0" xmlns="http://www.w3.org/2000/svg"
 width="100.000000pt" height="100.000000pt" viewBox="0 0 100.000000 100.000000"
 preserveAspectRatio="xMidYMid meet">

<g transform="translate(0.000000,100.000000) scale(0.100000,-0.100000)">
<path d="M208 905 c-47 -25 -89 -49 -93 -54 -3 -6 19 -49 49 -97 41 -65 53
-91 45 -100 -7 -9 -18 -10 -32 -5 -24 9 -61 -1 -72 -20 -5 -6 -8 -25 -7 -40 1
-27 -2 -29 -38 -29 -29 0 -42 -5 -50 -19 -14 -27 -13 -38 9 -58 10 -10 22 -36
25 -57 18 -97 92 -195 175 -232 30 -13 47 -28 56 -51 8 -19 25 -37 40 -43 33
-13 355 -13 388 -1 15 6 30 24 37 43 9 23 30 44 70 69 32 20 71 56 88 80 31
46 62 125 62 160 0 11 7 22 15 25 20 8 28 40 15 64 -8 14 -21 20 -46 20 -27 0
-36 5 -44 24 -5 14 -22 33 -37 43 -15 10 -34 25 -40 34 -19 26 -61 32 -89 14
-30 -19 -67 -11 -99 21 -29 29 -45 30 -76 6 -29 -23 -95 -26 -103 -6 -3 8 12
58 34 111 22 52 40 99 40 104 0 5 -45 9 -99 9 -79 0 -100 3 -105 15 -8 22 -22
18 -118 -30z m114 -71 c21 -90 21 -94 -5 -126 -36 -43 -69 -29 -122 54 -25 38
-45 71 -45 73 0 8 135 74 145 71 6 -1 18 -34 27 -72z m168 52 c0 -18 -61 -141
-69 -140 -6 1 -19 2 -30 3 -14 1 -22 16 -35 66 -9 35 -16 67 -16 70 0 3 34 5
75 5 41 0 75 -2 75 -4z m-70 -186 c11 -11 20 -31 20 -45 0 -29 3 -30 35 -9 18
12 28 13 44 5 28 -16 38 -14 44 9 11 41 55 36 61 -6 3 -14 10 -18 31 -16 14 2
33 -2 41 -9 12 -10 19 -8 35 9 25 28 43 28 68 1 11 -12 30 -27 43 -33 12 -6
24 -19 26 -29 3 -16 -21 -17 -362 -17 -351 0 -366 1 -376 19 -14 28 13 55 41
41 10 -6 19 -18 19 -26 0 -23 24 -11 28 13 2 12 12 29 23 39 19 17 22 17 49 2
31 -18 40 -15 40 15 0 26 28 57 52 57 10 0 27 -9 38 -20z m548 -182 c-4 -10
-106 -13 -468 -13 -362 0 -464 3 -467 13 -4 9 94 12 467 12 373 0 471 -3 468
-12z m-38 -67 c0 -32 -22 -81 -36 -81 -9 0 -14 -11 -14 -28 0 -30 -62 -98
-113 -124 -16 -8 -38 -32 -51 -54 l-22 -39 -189 0 c-173 0 -190 2 -193 18 -3
15 8 17 123 17 97 0 126 3 123 13 -3 8 -45 13 -144 17 -156 6 -179 13 -251 83
-31 29 -43 49 -43 69 0 17 -5 28 -14 28 -14 0 -36 49 -36 81 0 18 18 19 430
19 412 0 430 -1 430 -19z"/>
<path d="M172 345 c4 -33 22 -33 26 0 2 18 -1 25 -13 25 -12 0 -15 -7 -13 -25z"/>
<path d="M252 345 c4 -33 22 -33 26 0 2 18 -1 25 -13 25 -12 0 -15 -7 -13 -25z"/>
<path d="M332 345 c4 -33 22 -33 26 0 2 18 -1 25 -13 25 -12 0 -15 -7 -13 -25z"/>
<path d="M410 340 c0 -21 4 -30 13 -27 6 2 12 14 12 27 0 13 -6 25 -12 28 -9
2 -13 -7 -13 -28z"/>
<path d="M490 340 c0 -16 5 -30 10 -30 6 0 10 14 10 30 0 17 -4 30 -10 30 -5
0 -10 -13 -10 -30z"/>
<path d="M564 355 c-8 -19 2 -45 16 -45 5 0 10 14 10 30 0 31 -16 41 -26 15z"/>
<path d="M642 345 c4 -33 22 -33 26 0 2 18 -1 25 -13 25 -12 0 -15 -7 -13 -25z"/>
<path d="M722 345 c4 -33 22 -33 26 0 2 18 -1 25 -13 25 -12 0 -15 -7 -13 -25z"/>
<path d="M802 345 c4 -33 22 -33 26 0 2 18 -1 25 -13 25 -12 0 -15 -7 -13 -25z"/>
<path d="M600 175 c0 -13 9 -16 43 -13 23 2 42 8 42 13 0 6 -19 11 -42 13 -34
3 -43 0 -43 -13z"/>
</g>
</svg>
