<?xml version="1.0" standalone="no"?>
<!DOCTYPE svg PUBLIC "-//W3C//DTD SVG 20010904//EN"
 "http://www.w3.org/TR/2001/REC-SVG-20010904/DTD/svg10.dtd">
<svg version="1.0" xmlns="http://www.w3.org/2000/svg"
 width="100.000000pt" height="100.000000pt" viewBox="0 0 100.000000 100.000000"
 preserveAspectRatio="xMidYMid meet">

<g transform="translate(0.000000,100.000000) scale(0.100000,-0.100000)">
<path d="M624 900 c-33 -13 -54 -50 -54 -93 0 -100 140 -134 186 -46 45 89
-39 177 -132 139z m84 -52 c21 -21 14 -66 -12 -83 -28 -19 -58 -9 -76 26 -25
45 51 94 88 57z"/>
<path d="M450 651 c-71 -28 -130 -69 -196 -137 -61 -63 -125 -166 -111 -180
12 -12 731 -204 745 -199 19 7 15 120 -7 208 -55 212 -168 328 -320 327 -39
-1 -85 -8 -111 -19z m174 -32 c85 -24 175 -145 211 -284 16 -62 20 -145 8
-145 -15 0 -635 169 -640 174 -9 9 65 102 119 151 55 50 108 80 173 101 50 16
80 17 129 3z"/>
<path d="M484 564 c-46 -16 -87 -50 -79 -65 9 -14 32 -11 75 11 22 11 47 20
58 20 24 0 42 19 35 36 -6 17 -36 17 -89 -2z"/>
<path d="M311 436 c-23 -24 -21 -46 3 -46 20 0 49 37 43 55 -9 21 -20 19 -46
-9z"/>
<path d="M12 33 c3 -17 34 -18 488 -18 454 0 485 1 488 18 3 16 -25 17 -488
17 -463 0 -491 -1 -488 -17z"/>
</g>
</svg>
