<?xml version="1.0" standalone="no"?>
<!DOCTYPE svg PUBLIC "-//W3C//DTD SVG 20010904//EN"
 "http://www.w3.org/TR/2001/REC-SVG-20010904/DTD/svg10.dtd">
<svg version="1.0" xmlns="http://www.w3.org/2000/svg"
 width="100.000000pt" height="100.000000pt" viewBox="0 0 100.000000 100.000000"
 preserveAspectRatio="xMidYMid meet">

<g transform="translate(0.000000,100.000000) scale(0.100000,-0.100000)">
<path d="M840 670 c0 -105 -4 -190 -9 -190 -15 0 -22 -32 -10 -46 8 -10 9 -49
4 -132 l-7 -119 27 -21 c35 -28 55 -28 90 0 l27 21 -7 119 c-5 83 -4 122 4
132 12 14 5 46 -10 46 -5 0 -9 74 -9 164 l0 164 -31 26 c-17 14 -39 26 -50 26
-18 0 -19 -9 -19 -190z m27 -97 c-1 -49 -3 -9 -3 87 0 96 2 136 3 88 2 -49 2
-127 0 -175z m53 66 c0 -99 -4 -159 -10 -159 -6 0 -10 62 -10 166 0 107 3 163
10 159 6 -4 10 -70 10 -166z m20 -189 c0 -5 -22 -10 -50 -10 -27 0 -50 5 -50
10 0 6 23 10 50 10 28 0 50 -4 50 -10z m-16 -52 c3 -13 7 -63 10 -111 5 -78 3
-90 -14 -107 -25 -25 -35 -25 -60 0 -17 17 -19 29 -14 107 8 128 9 133 44 133
23 0 31 -5 34 -22z"/>
<path d="M30 770 c0 -70 1 -74 35 -106 32 -30 35 -37 35 -93 0 -54 -2 -60 -22
-63 -20 -3 -24 -10 -29 -68 -4 -36 -7 -104 -8 -152 -1 -76 2 -91 19 -108 29
-29 74 -26 100 7 20 25 21 35 15 143 -8 162 -12 180 -35 180 -18 0 -20 7 -20
70 0 54 3 70 14 70 30 0 46 42 46 117 0 42 -4 73 -10 73 -6 0 -10 -30 -10 -69
0 -53 -4 -74 -17 -87 -17 -17 -18 -14 -21 69 -4 112 -22 114 -22 2 0 -47 -4
-85 -9 -85 -20 0 -30 30 -33 95 -2 43 -8 70 -15 73 -10 3 -13 -15 -13 -68z
m110 -315 c0 -22 -4 -25 -35 -25 -31 0 -35 3 -35 25 0 22 4 25 35 25 31 0 35
-3 35 -25z m12 -142 c2 -49 0 -96 -4 -105 -12 -26 -47 -32 -69 -12 -21 19 -23
44 -13 143 l7 61 38 0 38 0 3 -87z"/>
<path d="M390 783 c-63 -23 -151 -113 -173 -177 -22 -63 -22 -149 0 -212 23
-67 110 -154 177 -177 117 -40 231 -14 317 72 86 86 112 200 72 317 -23 67
-110 154 -177 177 -61 21 -156 21 -216 0z m200 -19 c76 -23 153 -100 176 -179
63 -219 -132 -414 -351 -351 -79 23 -156 100 -179 176 -34 113 -11 206 68 286
80 79 173 102 286 68z"/>
<path d="M395 719 c-4 -6 -5 -12 -2 -15 7 -7 37 7 37 17 0 13 -27 11 -35 -2z"/>
<path d="M317 661 c-48 -53 -79 -158 -49 -168 8 -3 12 6 12 28 0 43 34 112 71
143 32 27 36 36 15 36 -7 0 -29 -17 -49 -39z"/>
<path d="M443 680 c-13 -5 -23 -14 -23 -20 0 -7 8 -9 23 -4 65 21 147 -2 186
-52 120 -153 -80 -353 -233 -233 -63 50 -78 154 -31 222 25 38 19 59 -8 29
-24 -27 -47 -87 -47 -124 0 -41 30 -106 61 -135 97 -89 245 -58 300 62 45 96
-1 207 -103 250 -41 17 -91 19 -125 5z"/>
</g>
</svg>
